<?xml version="1.0" encoding="UTF-8" standalone="no"?>
<!-- Created with Inkscape (http://www.inkscape.org/) -->

<svg width="512" height="512" viewBox="0 0 512 512" version="1.1" id="svg1" sodipodi:docname="icon.svg"
	inkscape:version="1.3.2 (091e20e, 2023-11-25)" xmlns:inkscape="http://www.inkscape.org/namespaces/inkscape"
	xmlns:sodipodi="http://sodipodi.sourceforge.net/DTD/sodipodi-0.dtd" xmlns:xlink="http://www.w3.org/1999/xlink"
	xmlns="http://www.w3.org/2000/svg" xmlns:svg="http://www.w3.org/2000/svg">
	<sodipodi:namedview id="namedview1" pagecolor="#ffffff" bordercolor="#000000" borderopacity="0.25"
		inkscape:showpageshadow="2" inkscape:pageopacity="0.0" inkscape:pagecheckerboard="0"
		inkscape:deskcolor="#d1d1d1" inkscape:document-units="px" inkscape:zoom="0.92314446" inkscape:cx="263.77237"
		inkscape:cy="300.06138" inkscape:window-width="1048" inkscape:window-height="835" inkscape:window-x="0"
		inkscape:window-y="38" inkscape:window-maximized="0" inkscape:current-layer="layer1" />
	<defs id="defs1">
		<linearGradient id="linearGradient40" inkscape:collect="always">
			<stop style="stop-color:#ff9601;stop-opacity:1;" offset="0.02702702" id="stop41" />
			<stop style="stop-color:#ff0101;stop-opacity:1;" offset="0.17954285" id="stop43" />
			<stop style="stop-color:#f40101;stop-opacity:1;" offset="0.83419776" id="stop51" />
			<stop style="stop-color:#f28901;stop-opacity:1;" offset="0.97542995" id="stop45" />
		</linearGradient>
		<linearGradient id="linearGradient37" inkscape:collect="always">
			<stop style="stop-color:#1ba900;stop-opacity:0.27450982;" offset="0" id="stop38" />
			<stop style="stop-color:#2cff05;stop-opacity:0.49803922;" offset="0.44226047" id="stop40" />
			<stop style="stop-color:#2dff05;stop-opacity:0;" offset="1" id="stop39" />
		</linearGradient>
		<linearGradient id="swatch23" inkscape:swatch="solid">
			<stop style="stop-color:#0fff00;stop-opacity:1;" offset="0" id="stop23" />
		</linearGradient>
		<linearGradient inkscape:collect="always" xlink:href="#linearGradient37" id="linearGradient39" x1="21.052166"
			y1="109.88987" x2="171.73683" y2="109.88987" gradientUnits="userSpaceOnUse"
			gradientTransform="rotate(-8.1607809,5.4226284,5.0126656)" />
		<linearGradient inkscape:collect="always" xlink:href="#linearGradient40" id="linearGradient45" x1="78.516243"
			y1="325.02945" x2="499.38333" y2="325.02945" gradientUnits="userSpaceOnUse" />
	</defs>
	<g inkscape:label="Layer 1" inkscape:groupmode="layer" id="layer1">
		<path
			style="fill:#3fca04;fill-opacity:1;stroke:url(#linearGradient39);stroke-width:20;stroke-dasharray:none;stroke-opacity:1"
			d="M 190.9762,167.96163 C 184.1319,142.83383 176.00768,94.463738 130.12118,47.901245 87.557581,4.7105901 31.436527,23.688439 31.436527,23.688439 c 0,0 -4.351738,67.54878 40.879472,108.290131 39.696051,35.75566 118.660201,35.98306 118.660201,35.98306 z"
			id="path21" sodipodi:nodetypes="cscsc" />
		<path
			style="fill:#ff0707;fill-opacity:1;fill-rule:nonzero;stroke:url(#linearGradient45);stroke-width:10;stroke-linecap:square;stroke-linejoin:miter;stroke-miterlimit:4;stroke-dasharray:none;stroke-opacity:1;paint-order:normal"
			d="m 373.88412,181.04741 c -31.9884,0 -88.20384,1.05655 -143.61372,1.05655 -34.16565,0 -89.79749,15.20751 -91.98804,50.04549 -1.08325,17.2278 -1.08325,59.37044 -2.16651,76.59824 16.27443,-7.28812 15.20811,-66.27777 50.9898,-66.27777 36.7188,0 39.78604,43.01929 40.7538,59.29196 1.081,18.17669 -12.8472,60.21572 -22.52056,79.49104 -15.34172,19.79515 -32.44013,28.95066 -52.52467,35.55387 -20.61701,6.77827 -46.25831,2.61824 -65.055355,2.61824 -23.409133,0 6.857527,61.35458 34.168745,61.35458 8.93061,0 25.67175,-0.12759 54.67609,-0.12759 90.72847,0 89.23947,-215.53439 104.22932,-230.52424 13.05374,-13.05374 38.37684,-12.81787 50.41603,-0.77868 10.18954,10.18954 -18.78304,231.05413 58.68275,231.05413 9.3736,0 33.59161,0.2268 48.92587,0.2268 17.09083,0 35.70363,3.06365 50.95093,-30.58105 10.66439,-23.53206 6.41752,-69.69229 -17.41107,-81.85254 -16.49083,-8.41564 -24.19703,44.60198 -59.68566,44.3577 -25.38677,-0.17475 -24.32082,-34.62567 -31.87321,-65.03595 -5.37798,-21.65484 -2.54994,-57.09985 10.27724,-81.16636 12.76725,-23.95408 45.37441,-45.85568 61.36233,-53.53381 19.86624,-9.54067 31.59014,-79.7267 12.6815,-79.7267 -41.43048,0 8.07146,47.79994 -91.27561,47.95609 z"
			id="path40" sodipodi:nodetypes="sssccscssssssssssssasss" />
	</g>
</svg>