<?xml version="1.0" encoding="UTF-8" standalone="no"?>
<!-- Created with Inkscape (http://www.inkscape.org/) -->

<svg
   width="512"
   height="512"
   viewBox="0 0 512 512"
   version="1.1"
   id="svg1"
   sodipodi:docname="logo-spooky.svg"
   inkscape:version="1.3.2 (091e20e, 2023-11-25)"
   xmlns:inkscape="http://www.inkscape.org/namespaces/inkscape"
   xmlns:sodipodi="http://sodipodi.sourceforge.net/DTD/sodipodi-0.dtd"
   xmlns="http://www.w3.org/2000/svg"
   xmlns:svg="http://www.w3.org/2000/svg">
  <sodipodi:namedview
     id="namedview1"
     pagecolor="#ffffff"
     bordercolor="#000000"
     borderopacity="0.25"
     inkscape:showpageshadow="2"
     inkscape:pageopacity="0.0"
     inkscape:pagecheckerboard="0"
     inkscape:deskcolor="#d1d1d1"
     inkscape:document-units="px"
     inkscape:zoom="0.92905479"
     inkscape:cx="217.96346"
     inkscape:cy="249.17798"
     inkscape:window-width="1512"
     inkscape:window-height="832"
     inkscape:window-x="0"
     inkscape:window-y="38"
     inkscape:window-maximized="0"
     inkscape:current-layer="layer1"
     showgrid="false" />
  <defs
     id="defs1">
    <linearGradient
       id="swatch19">
      <stop
         style="stop-color:#fe6c00;stop-opacity:1;"
         offset="0.00255754"
         id="stop11" />
      <stop
         style="stop-color:#fe0000;stop-opacity:1;"
         offset="0.5"
         id="stop12" />
      <stop
         style="stop-color:#ff9300;stop-opacity:1;"
         offset="0.99744248"
         id="stop20" />
    </linearGradient>
    <linearGradient
       id="swatch6"
       inkscape:swatch="solid">
      <stop
         style="stop-color:#ff0000;stop-opacity:1;"
         offset="0"
         id="stop7" />
    </linearGradient>
    <linearGradient
       id="swatch5"
       inkscape:swatch="solid">
      <stop
         style="stop-color:#ff0000;stop-opacity:1;"
         offset="0"
         id="stop6" />
    </linearGradient>
    <linearGradient
       id="swatch4"
       inkscape:swatch="solid">
      <stop
         style="stop-color:#ff0000;stop-opacity:1;"
         offset="0"
         id="stop5" />
    </linearGradient>
    <inkscape:path-effect
       effect="fillet_chamfer"
       id="path-effect1"
       is_visible="true"
       lpeversion="1"
       nodesatellites_param="F,0,0,1,0,0,0,1 @ F,0,0,1,0,0,0,1 @ F,0,0,1,0,0,0,1 @ F,0,0,1,0,0,0,1 @ F,0,0,1,0,0,0,1 @ F,0,0,1,0,0,0,1 @ F,0,0,1,0,0,0,1 @ F,0,0,1,0,0,0,1 @ F,0,0,1,0,0,0,1 @ F,0,0,1,0,0,0,1 @ F,0,0,1,0,0,0,1 @ F,0,0,1,0,0,0,1 @ F,0,0,1,0,0,0,1 @ F,0,0,1,0,0,0,1 @ F,0,0,1,0,0,0,1 @ F,0,0,1,0,0,0,1 @ F,0,0,1,0,0,0,1 @ F,0,0,1,0,0,0,1 @ F,0,0,1,0,0,0,1 @ F,0,0,1,0,0,0,1 @ F,0,0,1,0,0,0,1"
       radius="0"
       unit="px"
       method="auto"
       mode="F"
       chamfer_steps="1"
       flexible="false"
       use_knot_distance="true"
       apply_no_radius="true"
       apply_with_radius="true"
       only_selected="false"
       hide_knots="false" />
    <linearGradient
       id="swatch23"
       inkscape:swatch="solid">
      <stop
         style="stop-color:#0fff00;stop-opacity:1;"
         offset="0"
         id="stop23" />
    </linearGradient>
  </defs>
  <g
     inkscape:label="Layer 1"
     inkscape:groupmode="layer"
     id="layer1">
    <path
       style="fill:#ff0202;fill-opacity:1;stroke:#000000;stroke-width:17.894;stroke-linecap:square;stroke-dasharray:none;stroke-opacity:1;paint-order:fill markers stroke"
       d="m 176.80488,220.62819 c -63.57079,23.25625 -82.628433,-15.12121 -118.712196,47.79586 -20.136922,35.11151 -28.281936,85.42438 -8.621489,110.59012 26.96599,34.51698 91.833895,36.02417 139.213335,11.37542 47.98453,-24.96357 -10.11933,-98.0816 39.20724,-115.65842 26.47813,-9.43511 38.10978,3.07744 59.93892,-17.99997 44.33396,-42.8072 -35.04175,-131.54457 -83.69638,-93.84372 -18.76515,14.54049 -0.73574,48.01189 -27.32943,57.74071 z"
       id="path3"
       sodipodi:nodetypes="ssssssss" />
    <path
       style="fill:#d39d8c;fill-opacity:1;fill-rule:nonzero;stroke:#000000;stroke-width:9.12194;stroke-linecap:square;stroke-linejoin:miter;stroke-miterlimit:4;stroke-dasharray:none;stroke-opacity:1;paint-order:fill markers stroke"
       d="m 84.932583,277.85288 c 14.75106,12.32459 49.528527,12.54995 63.270677,14.49492 33.1143,4.68681 7.13284,36.22545 -26.66012,44.19007 -42.066667,9.91464 -64.395229,2.74662 -66.464091,16.55554 -1.21269,8.09428 20.061164,17.67738 44.534234,19.54714 8.542707,0.65266 24.571147,2.81499 52.301267,-3.05495 85.30649,-18.0578 34.76777,-73.46421 111.32901,-89.57113 76.56124,-16.10691 7.86657,52.28484 72.71145,74.51918 22.57853,7.74183 90.05851,5.69889 107.72588,-15.36657 7.44747,-8.87984 -0.91439,-18.35651 -21.31353,-19.30445 -73.01265,-3.39283 -59.99449,-45.10423 -24.00475,-55.43502 48.70559,-13.98085 31.10229,-25.31987 27.51344,-26.96896 -48.57997,-22.32286 -151.15049,16.33611 -186.70297,18.37023 -28.31066,1.62031 -174.683706,-5.28763 -154.240497,22.02399 z"
       id="path40"
       sodipodi:nodetypes="sssssszssssssss" />
    <path
       style="fill:#ff0202;fill-opacity:1;stroke:#000000;stroke-width:5;stroke-linecap:square;stroke-dasharray:none;stroke-opacity:1;paint-order:fill markers stroke"
       d="m 195.89803,294.9234 c -7.12998,-2.91672 -16.90515,3.92466 -20.4509,10.76363 -3.83044,7.38808 -18.89231,34.33084 -11.83999,38.74906 7.69185,4.81888 21.72466,1.63565 25.8327,-6.45819 4.26241,-8.39796 15.17479,-39.48873 6.45819,-43.0545 z"
       id="path4"
       sodipodi:nodetypes="sssss" />
  </g>
</svg>
